#!OML:ASF H:\Dans Jumps\Project 1\Capture day 1\Session 1\subject.ASF
:FULLY-SPECIFIED
:DEGREES
448
root 0.529804 17.7287 11.8002 9.88719 -1.24512 -1.03362
lowerback -3.19386 -0.0369791 -0.490514
upperback 0.580229 -0.0674123 1.61569
thorax 2.3891 -0.0517748 1.93153
lowerneck -12.7555 -0.0332291 -1.74938
upperneck 21.7792 -0.020621 1.55802
head 8.91723 0.0112458 0.820915
rclavicle -6.06293e-015 -9.54166e-015
rhumerus -30.8038 -12.7193 -78.1807
rradius 26.3983
rwrist 43.0804
rhand -17.4398 -27.3725
rfingers 7.12502
rthumb 8.81092 -57.1686
lclavicle -6.06293e-015 -9.54166e-015
lhumerus -32.9229 -8.13925 86.7236
lradius 28.5423
lwrist 13.8296
lhand -23.8115 -8.80489
lfingers 7.12502
lthumb 2.65938 21.1583
rfemur -15.3376 -4.92456 21.5428
rtibia 21.3383
rfoot -14.4462 -0.462268
rtoes 15.2277
lfemur -14.649 9.67874 -19.4719
ltibia 17.3592
lfoot -10.2331 4.19512
ltoes -2.91868
449
root 0.533853 17.728 11.811 9.89919 -1.23347 -1.05201
lowerback -3.27893 -0.0548377 -0.45104
upperback 0.536717 -0.092733 1.61777
thorax 2.39303 -0.0636591 1.91018
lowerneck -12.7295 -0.0528845 -1.75853
upperneck 21.6977 -0.0647576 1.63899
head 8.88512 -0.00158724 0.844396
rclavicle 4.96962e-017 -3.97569e-015
rhumerus -30.8557 -13.1267 -77.9989
rradius 26.0859
rwrist 43.3651
rhand -17.3764 -27.35
rfingers 7.12502
rthumb 8.87214 -57.1435
lclavicle 4.96962e-017 -3.97569e-015
lhumerus -32.4518 -7.43039 86.3855
lradius 28.4421
lwrist 13.4241
lhand -23.8882 -9.14736
lfingers 7.12502
lthumb 2.58529 20.8167
rfemur -15.3163 -4.94788 21.5496
rtibia 21.3528
rfoot -14.4818 -0.466887
rtoes 15.2173
lfemur -14.6183 9.65639 -19.4639
ltibia 17.3557
lfoot -10.2818 4.24206
ltoes -2.98494
450
root 0.537989 17.7269 11.8209 9.90807 -1.22276 -1.08264
lowerback -3.35393 -0.0740056 -0.402486
upperback 0.497627 -0.120305 1.62231
thorax 2.39589 -0.0765889 1.88608
lowerneck -12.743 -0.0691371 -1.76769
upperneck 21.6312 -0.1037 1.72077
head 8.8655 -0.0118451 0.868918
rclavicle -1.2921e-015 -1.07344e-014
rhumerus -30.9074 -13.4289 -77.8599
rradius 25.804
rwrist 43.6119
rhand -17.3158 -27.3156
rfingers 7.12502
rthumb 8.93061 -57.1066
lclavicle -1.2921e-015 -1.07344e-014
lhumerus -32.027 -6.72804 86.0733
lradius 28.4256
lwrist 13.1206
lhand -23.9766 -9.36486
lfingers 7.12502
lthumb 2.5 20.6002
rfemur -15.2846 -4.95946 21.5683
rtibia 21.3484
rfoot -14.5122 -0.477679
rtoes 15.2077
lfemur -14.5921 9.6235 -19.4419
ltibia 17.3638
lfoot -10.3318 4.30955
ltoes -3.06099
451
root 0.542097 17.7256 11.8297 9.91276 -1.21201 -1.12107
lowerback -3.40973 -0.095751 -0.352373
upperback 0.459304 -0.151447 1.63074
thorax 2.38884 -0.0912673 1.86487
lowerneck -12.7976 -0.0791537 -1.76513
upperneck 21.583 -0.132375 1.78679
head 8.85962 -0.0179055 0.887475
rclavicle 4.96962e-017 7.15625e-015
rhumerus -30.9607 -13.6243 -77.7607
rradius 25.5526
rwrist 43.8261
rhand -17.2641 -27.2706
rfingers 7.12502
rthumb 8.98048 -57.0594
lclavicle 4.96962e-017 7.15625e-015
lhumerus -31.651 -6.06843 85.8037
lradius 28.4882
lwrist 12.9744
lhand -24.0582 -9.44818
lfingers 7.12502
lthumb 2.42113 20.5178
rfemur -15.2456 -4.96126 21.5949
rtibia 21.3313
rfoot -14.5381 -0.495668
rtoes 15.1964
lfemur -14.5697 9.58695 -19.41
ltibia 17.3821
lfoot -10.3854 4.38505
ltoes -3.14094
452
root 0.546002 17.724 11.8374 9.90924 -1.20441 -1.16588
lowerback -3.44424 -0.117649 -0.303454
upperback 0.425322 -0.182789 1.6424
thorax 2.37427 -0.106083 1.84763
lowerneck -12.8832 -0.0859921 -1.75721
upperneck 21.543 -0.154834 1.84176
head 8.86217 -0.0216711 0.902203
rclavicle 2.33572e-015 1.51076e-014
rhumerus -31.0159 -13.717 -77.7004
rradius 25.3404
rwrist 44.0094
rhand -17.2211 -27.2182
rfingers 7.12502
rthumb 9.02202 -57.0053
lclavicle 2.33572e-015 1.51076e-014
lhumerus -31.3099 -5.4817 85.5844
lradius 28.6056
lwrist 13.0058
lhand -24.1555 -9.49316
lfingers 7.12502
lthumb 2.32723 20.4739
rfemur -15.1987 -4.94991 21.6281
rtibia 21.3095
rfoot -14.5634 -0.523391
rtoes 15.1772
lfemur -14.5441 9.55349 -19.368
ltibia 17.4062
lfoot -10.4408 4.45608
ltoes -3.19842
453
root 0.549789 17.722 11.8443 9.89545 -1.20326 -1.19949
lowerback -3.46025 -0.139118 -0.270979
upperback 0.396831 -0.212772 1.65175
thorax 2.35492 -0.12044 1.83732
lowerneck -12.969 -0.0934644 -1.75645
upperneck 21.4879 -0.175935 1.89488
head 8.8596 -0.0255516 0.917553
rclavicle 5.31749e-015 -2.38542e-015
rhumerus -31.0657 -13.7337 -77.6729
rradius 25.158
rwrist 44.1754
rhand -17.1765 -27.1706
rfingers 7.12502
rthumb 9.06506 -56.9558
lclavicle 5.31749e-015 -2.38542e-015
lhumerus -30.9902 -4.98654 85.4178
lradius 28.7539
lwrist 13.2029
lhand -24.2715 -9.56852
lfingers 7.12502
lthumb 2.21517 20.3997
rfemur -15.1461 -4.94603 21.6486
rtibia 21.2917
rfoot -14.5916 -0.541061
rtoes 15.1565
lfemur -14.509 9.54111 -19.3376
ltibia 17.4294
lfoot -10.4997 4.50304
ltoes -3.24309
454
root 0.5535 17.7199 11.8507 9.8703 -1.20896 -1.21871
lowerback -3.4688 -0.157937 -0.254736
upperback 0.380875 -0.238521 1.65598
thorax 2.34415 -0.132976 1.83112
lowerneck -13.0608 -0.10187 -1.74935
upperneck 21.4152 -0.195693 1.93189
head 8.85209 -0.0299442 0.926408
rclavicle 4.17448e-015 -1.35174e-014
rhumerus -31.1018 -13.6934 -77.6763
rradius 25.0093
rwrist 44.3201
rhand -17.127 -27.1385
rfingers 7.12502
rthumb 9.11284 -56.9217
lclavicle 4.17448e-015 -1.35174e-014
lhumerus -30.6677 -4.59886 85.3033
lradius 28.9114
lwrist 13.538
lhand -24.3836 -9.64726
lfingers 7.12502
lthumb 2.10686 20.3221
rfemur -15.0887 -4.9584 21.6528
rtibia 21.2843
rfoot -14.6244 -0.541316
rtoes 15.1182
lfemur -14.4592 9.55631 -19.3225
ltibia 17.4456
lfoot -10.5588 4.51512
ltoes -3.26588
455
root 0.557083 17.7179 11.8569 9.83597 -1.22447 -1.21927
lowerback -3.45612 -0.173968 -0.261562
upperback 0.362135 -0.259277 1.6552
thorax 2.31849 -0.143198 1.833
lowerneck -13.1241 -0.113659 -1.76457
upperneck 21.3234 -0.218082 1.98131
head 8.83287 -0.0361673 0.942713
rclavicle -5.06901e-015 -4.37326e-015
rhumerus -31.1449 -13.609 -77.6976
rradius 24.8902
rwrist 44.4488
rhand -17.0804 -27.1208
rfingers 7.12502
rthumb 9.15778 -56.902
lclavicle -5.06901e-015 -4.37326e-015
lhumerus -30.3599 -4.30251 85.2346
lradius 29.0742
lwrist 13.95
lhand -24.4987 -9.75738
lfingers 7.12502
lthumb 1.99577 20.213
rfemur -15.0319 -4.98235 21.6358
rtibia 21.2928
rfoot -14.6613 -0.524328
rtoes 15.0836
lfemur -14.3942 9.60188 -19.3282
ltibia 17.4486
lfoot -10.6165 4.49057
ltoes -3.27236
456
root 0.560408 17.7161 11.8627 9.79472 -1.25223 -1.20381
lowerback -3.44777 -0.184115 -0.286416
upperback 0.358995 -0.2715 1.64774
thorax 2.31107 -0.149515 1.83864
lowerneck -13.1648 -0.131993 -1.79545
upperneck 21.193 -0.246385 2.03358
head 8.79641 -0.0461951 0.961609
rclavicle -6.4605e-016 2.78299e-015
rhumerus -31.1636 -13.5144 -77.7363
rradius 24.7952
rwrist 44.5655
rhand -17.0342 -27.1209
rfingers 7.12502
rthumb 9.20233 -56.9001
lclavicle -6.4605e-016 2.78299e-015
lhumerus -30.0318 -4.0825 85.2
lradius 29.2325
lwrist 14.3687
lhand -24.5948 -9.86826
lfingers 7.12502
lthumb 1.90288 20.103
rfemur -14.9802 -5.00139 21.6004
rtibia 21.3188
rfoot -14.6982 -0.501983
rtoes 15.0556
lfemur -14.3158 9.66837 -19.3507
ltibia 17.4354
lfoot -10.6646 4.44234
ltoes -3.27416
457
root 0.563389 17.7146 11.8678 9.75052 -1.28996 -1.17874
lowerback -3.43551 -0.189016 -0.325991
upperback 0.360428 -0.276085 1.63756
thorax 2.30595 -0.152223 1.85017
lowerneck -13.2003 -0.150466 -1.8243
upperneck 21.0543 -0.272154 2.07277
head 8.75617 -0.0562729 0.975927
rclavicle -7.45443e-016 7.15625e-015
rhumerus -31.1747 -13.4174 -77.7809
rradius 24.7253
rwrist 44.6648
rhand -16.9915 -27.131
rfingers 7.12502
rthumb 9.24355 -56.9084
lclavicle -7.45443e-016 7.15625e-015
lhumerus -29.7019 -3.92061 85.1956
lradius 29.3845
lwrist 14.743
lhand -24.652 -9.94779
lfingers 7.12502
lthumb 1.8477 20.024
rfemur -14.9375 -5.00142 21.554
rtibia 21.3606
rfoot -14.7333 -0.487839
rtoes 15.0338
lfemur -14.2295 9.74541 -19.3828
ltibia 17.4071
lfoot -10.7026 4.38441
ltoes -3.27811
458
root 0.566081 17.7135 11.8721 9.70509 -1.3365 -1.14196
lowerback -3.42335 -0.18902 -0.380161
upperback 0.367193 -0.273495 1.62288
thorax 2.30617 -0.151561 1.86567
lowerneck -13.2224 -0.17085 -1.85285
upperneck 20.9015 -0.298549 2.10319
head 8.70879 -0.0675985 0.987019
rclavicle 3.926e-015 0
rhumerus -31.1744 -13.3416 -77.8253
rradius 24.6714
rwrist 44.7575
rhand -16.9677 -27.1425
rfingers 7.12502
rthumb 9.26651 -56.9189
lclavicle 3.926e-015 0
lhumerus -29.3782 -3.79851 85.2112
lradius 29.541
lwrist 15.0149
lhand -24.686 -10.0039
lfingers 7.12502
lthumb 1.81485 19.9681
rfemur -14.9032 -4.98056 21.4941
rtibia 21.4128
rfoot -14.7635 -0.484999
rtoes 15.0096
lfemur -14.1395 9.81736 -19.4267
ltibia 17.3691
lfoot -10.7304 4.334
ltoes -3.2757
459
root 0.568522 17.7126 11.8756 9.6615 -1.38804 -1.10779
lowerback -3.41391 -0.185715 -0.434871
upperback 0.376546 -0.266535 1.6088
thorax 2.31043 -0.148769 1.88233
lowerneck -13.2493 -0.185966 -1.86199
upperneck 20.753 -0.31647 2.10948
head 8.66357 -0.0759188 0.987696
rclavicle -3.926e-015 -9.93923e-015
rhumerus -31.1565 -13.3048 -77.8608
rradius 24.6167
rwrist 44.8513
rhand -16.966 -27.1409
rfingers 7.12502
rthumb 9.26816 -56.9172
lclavicle -3.926e-015 -9.93923e-015
lhumerus -29.0629 -3.70226 85.2434
lradius 29.6895
lwrist 15.1658
lhand -24.7184 -10.1066
lfingers 7.12502
lthumb 1.78355 19.8657
rfemur -14.8765 -4.93594 21.4372
rtibia 21.4691
rfoot -14.7868 -0.497017
rtoes 14.9877
lfemur -14.0511 9.8742 -19.4663
ltibia 17.327
lfoot -10.749 4.30572
ltoes -3.28241
